# xmcd
#
# Track frame offsets:
#	150
#	13088
#	26515
#	37498
#	50113
#	63670
#	76078
#	86780
#	100095
#	112015
#	125375
#	137985
#	151115
#	167483
#	178823
#	191728
#
# Disc length: 2671 seconds
#
# Revision: 1
# Processed by: cddbd v1.4PL0 Copyright (c) Steve Scherf et al.
# Submitted via: audiograbber 1.81.03
#
DISCID=df0a6d10
DTITLE=John Lee Hooker - Love Blues
DYEAR=1900
DGENRE=
TTITLE0=She Shot Me Down
TTITLE1=Union Station Blues
TTITLE2=Send Me Your Pillow
TTITLE3=Frisco Blues
TTITLE4=Love Blues
TTITLE5=I Got A Letter This Morning
TTITLE6=Keep Your Hands To Yourself
TTITLE7=Down At The Landing
TTITLE8=Love Is A Burning Thing
TTITLE9=Don't Look Back
TTITLE10=Take A Look At Yourself
TTITLE11=Birmingham Blues
TTITLE12=Process
TTITLE13=What Do You Say
TTITLE14=I Got A Good Girl
TTITLE15=You Know I Love You
EXTD=
EXTT0=
EXTT1=
EXTT2=
EXTT3=
EXTT4=
EXTT5=
EXTT6=
EXTT7=
EXTT8=
EXTT9=
EXTT10=
EXTT11=
EXTT12=
EXTT13=
EXTT14=
EXTT15=
PLAYORDER=
